<svg preserveAspectRatio="none" width="100%" height="100%" overflow="visible" style="display: block;" viewBox="0 0 64 64" fill="none" xmlns="http://www.w3.org/2000/svg">
<g id="excavator, heavy machinery, construction, digging, earth mover">
<rect width="64" height="64" fill="white"/>
<path id="Vector" d="M38.9131 23.9257L39.3392 26L47 18.5618C45.5547 17.711 44.5856 16.1634 44.5856 14.4051C44.5856 14.2674 44.594 14.1296 44.6024 14L37 21.3815C37.9691 21.9082 38.6876 22.8238 38.9131 23.9257Z" fill="var(--fill-0, black)"/>
<path id="Vector_2" d="M49.5 18C51.433 18 53 16.433 53 14.5C53 12.567 51.433 11 49.5 11C47.567 11 46 12.567 46 14.5C46 16.433 47.567 18 49.5 18Z" fill="var(--fill-0, black)"/>
<path id="Vector_3" d="M35 41H19V43H35V41Z" fill="var(--fill-0, black)"/>
<path id="Vector_4" d="M17.5714 40H37.2857C38.2325 40 39 39.2389 39 38.3V33.2H32.1429C31.6694 33.2 31.2857 32.8194 31.2857 32.35V23H28.5657C27.2268 23 26.1257 23.9969 26.0056 25.3097L25.3686 31.5H17.5714C16.1513 31.5 15 32.6417 15 34.05V37.45C15 38.8583 16.1513 40 17.5714 40ZM25.2857 34.9C25.2857 34.4306 25.6695 34.05 26.1429 34.05C26.6162 34.05 27 34.4306 27 34.9V36.6C27 37.0694 26.6162 37.45 26.1429 37.45C25.6695 37.45 25.2857 37.0694 25.2857 36.6V34.9ZM21.8571 34.9C21.8571 34.4306 22.2409 34.05 22.7143 34.05C23.1876 34.05 23.5714 34.4306 23.5714 34.9V36.6C23.5714 37.0694 23.1876 37.45 22.7143 37.45C22.2409 37.45 21.8571 37.0694 21.8571 36.6V34.9ZM18.4286 34.9C18.4286 34.4306 18.8124 34.05 19.2857 34.05C19.7591 34.05 20.1429 34.4306 20.1429 34.9V36.6C20.1429 37.0694 19.7591 37.45 19.2857 37.45C18.8124 37.45 18.4286 37.0694 18.4286 36.6V34.9Z" fill="var(--fill-0, black)"/>
<path id="Vector_5" d="M17 50C17.5523 50 18 49.5523 18 49C18 48.4477 17.5523 48 17 48C16.4477 48 16 48.4477 16 49C16 49.5523 16.4477 50 17 50Z" fill="var(--fill-0, black)"/>
<path id="Vector_6" d="M37.6164 24.7105C37.399 23.7195 36.4342 23 35.3224 23H33V31H39L37.6164 24.7105Z" fill="var(--fill-0, black)"/>
<path id="Vector_7" d="M23.5 50C23.7761 50 24 49.5523 24 49C24 48.4477 23.7761 48 23.5 48C23.2239 48 23 48.4477 23 49C23 49.5523 23.2239 50 23.5 50Z" fill="var(--fill-0, black)"/>
<path id="Vector_8" d="M37 50C37.5523 50 38 49.5523 38 49C38 48.4477 37.5523 48 37 48C36.4477 48 36 48.4477 36 49C36 49.5523 36.4477 50 37 50Z" fill="var(--fill-0, black)"/>
<path id="Vector_9" d="M38.7895 45H15.2105C12.8851 45 11 46.7909 11 49C11 51.2091 12.8851 53 15.2105 53H38.7895C41.1149 53 43 51.2091 43 49C43 46.7909 41.1149 45 38.7895 45ZM16.8947 51.4C15.5016 51.4 14.3684 50.3234 14.3684 49C14.3684 47.6766 15.5016 46.6 16.8947 46.6C18.2878 46.6 19.4211 47.6766 19.4211 49C19.4211 50.3234 18.2878 51.4 16.8947 51.4ZM23.6316 51.4C22.2385 51.4 21.1053 50.3234 21.1053 49C21.1053 47.6766 22.2385 46.6 23.6316 46.6C25.0247 46.6 26.1579 47.6766 26.1579 49C26.1579 50.3234 25.0247 51.4 23.6316 51.4ZM30.3684 51.4C28.9753 51.4 27.8421 50.3234 27.8421 49C27.8421 47.6766 28.9753 46.6 30.3684 46.6C31.7615 46.6 32.8947 47.6766 32.8947 49C32.8947 50.3234 31.7615 51.4 30.3684 51.4ZM37.1053 51.4C35.7122 51.4 34.5789 50.3234 34.5789 49C34.5789 47.6766 35.7122 46.6 37.1053 46.6C38.4984 46.6 39.6316 47.6766 39.6316 49C39.6316 50.3234 38.4984 51.4 37.1053 51.4Z" fill="var(--fill-0, black)"/>
<path id="Vector_10" d="M30 50C30.5523 50 31 49.5523 31 49C31 48.4477 30.5523 48 30 48C29.4477 48 29 48.4477 29 49C29 49.5523 29.4477 50 30 50Z" fill="var(--fill-0, black)"/>
<path id="Vector_11" d="M43 30.75C43 33.6462 45.2417 36 48 36C50.7583 36 53 33.6462 53 30.75V29H43V30.75Z" fill="var(--fill-0, black)"/>
<path id="Vector_12" d="M48 19.0312V28H53V18C52.1167 18.8319 50.95 19.3345 49.6667 19.3345C49.0833 19.3345 48.525 19.2305 48 19.0312Z" fill="var(--fill-0, black)"/>
</g>
</svg>
