<svg preserveAspectRatio="none" width="100%" height="100%" overflow="visible" style="display: block;" viewBox="0 0 42 42" fill="none" xmlns="http://www.w3.org/2000/svg">
<g id="Group 8">
<path id="Vector" d="M36.267 4.19303C36.5119 4.91193 37.0874 5.48749 37.7823 5.72404C38.0497 5.8274 38.3382 5.88 38.64 5.88C40.0295 5.88 41.16 4.74951 41.16 3.36C41.16 1.9705 40.0295 0.840005 38.64 0.840005C37.2505 0.840005 36.12 1.9705 36.12 3.36C36.12 3.66177 36.1726 3.95032 36.267 4.19303Z" fill="var(--fill-0, black)"/>
<path id="Vector_2" d="M5.88003 37.8C6.34395 37.8 6.72003 37.4239 6.72003 36.96C6.72003 36.496 6.34395 36.12 5.88003 36.12C5.41611 36.12 5.04003 36.496 5.04003 36.96C5.04003 37.4239 5.41611 37.8 5.88003 37.8Z" fill="var(--fill-0, black)"/>
<path id="Vector_3" d="M12.5999 37.8C13.0639 37.8 13.4399 37.4239 13.4399 36.96C13.4399 36.496 13.0639 36.12 12.5999 36.12C12.136 36.12 11.7599 36.496 11.7599 36.96C11.7599 37.4239 12.136 37.8 12.5999 37.8Z" fill="var(--fill-0, black)"/>
<path id="Vector_4" d="M12.6 15.96C12.6 15.0321 11.8478 14.28 10.92 14.28H4.20001C3.27219 14.28 2.52001 15.0321 2.52001 15.96V16.8H12.6V15.96Z" fill="var(--fill-0, black)"/>
<path id="Vector_5" d="M1.68 26.8799H28.56C29.4878 26.8799 30.24 26.1278 30.24 25.1999V21.8399H21.84C20.9122 21.8399 20.16 21.0878 20.16 20.1599V11.7599H14.28V17.6399C14.28 18.1038 13.9039 18.4799 13.44 18.4799H1.68C0.752178 18.4799 0 19.2321 0 20.1599V25.1999C0 26.1278 0.752178 26.8799 1.68 26.8799ZM15.96 20.9999H17.64C18.1039 20.9999 18.48 21.3761 18.48 21.8399C18.48 22.3038 18.1039 22.6799 17.64 22.6799H15.96C15.4961 22.6799 15.12 22.3038 15.12 21.8399C15.12 21.3761 15.4961 20.9999 15.96 20.9999ZM10.08 21.8399C10.08 21.3761 10.4561 20.9999 10.92 20.9999C11.3839 20.9999 11.76 21.3761 11.76 21.8399V24.3599C11.76 24.8238 11.3839 25.1999 10.92 25.1999C10.4561 25.1999 10.08 24.8238 10.08 24.3599V21.8399ZM6.72 21.8399C6.72 21.3761 7.09611 20.9999 7.56 20.9999C8.02389 20.9999 8.4 21.3761 8.4 21.8399V24.3599C8.4 24.8238 8.02389 25.1999 7.56 25.1999C7.09611 25.1999 6.72 24.8238 6.72 24.3599V21.8399ZM3.36 21.8399C3.36 21.3761 3.73611 20.9999 4.2 20.9999C4.66389 20.9999 5.04 21.3761 5.04 21.8399V24.3599C5.04 24.8238 4.66389 25.1999 4.2 25.1999C3.73611 25.1999 3.36 24.8238 3.36 24.3599V21.8399Z" fill="var(--fill-0, black)"/>
<path id="Vector_6" d="M26.04 28.56H5.88003V30.24H26.04V28.56Z" fill="var(--fill-0, black)"/>
<path id="Vector_7" d="M30.24 11.7599H21.84V20.1599H30.24V11.7599Z" fill="var(--fill-0, black)"/>
<path id="Vector_8" d="M13.4399 10.08H31.0799C32.0078 10.08 32.7599 9.32782 32.7599 8.4C32.7599 7.47213 32.0078 6.72 31.0799 6.72H27.9215L29.6015 5.04H34.7927C34.7507 4.9392 34.7087 4.83841 34.6752 4.73761C34.5323 4.36801 34.4399 3.86397 34.4399 3.36C34.4399 1.9908 35.1035 0.764375 36.1199 0H27.8627C27.636 0 27.426 0.0923917 27.2664 0.251992L20.7983 6.72H13.4399C12.5121 6.72 11.7599 7.47213 11.7599 8.4C11.7599 9.32782 12.5121 10.08 13.4399 10.08Z" fill="var(--fill-0, black)"/>
<path id="Vector_9" d="M26.88 31.9199H5.04C2.25648 31.9199 0 34.1764 0 36.9599C0 39.7435 2.25648 41.9999 5.04 41.9999H26.88C29.6635 41.9999 31.92 39.7435 31.92 36.9599C31.92 34.1764 29.6635 31.9199 26.88 31.9199ZM5.88 39.4799C4.49039 39.4799 3.36 38.3496 3.36 36.9599C3.36 35.5703 4.49039 34.4399 5.88 34.4399C7.26961 34.4399 8.4 35.5703 8.4 36.9599C8.4 38.3496 7.26961 39.4799 5.88 39.4799ZM12.6 39.4799C11.2104 39.4799 10.08 38.3496 10.08 36.9599C10.08 35.5703 11.2104 34.4399 12.6 34.4399C13.9896 34.4399 15.12 35.5703 15.12 36.9599C15.12 38.3496 13.9896 39.4799 12.6 39.4799ZM19.32 39.4799C17.9304 39.4799 16.8 38.3496 16.8 36.9599C16.8 35.5703 17.9304 34.4399 19.32 34.4399C20.7096 34.4399 21.84 35.5703 21.84 36.9599C21.84 38.3496 20.7096 39.4799 19.32 39.4799ZM26.04 39.4799C24.6504 39.4799 23.52 38.3496 23.52 36.9599C23.52 35.5703 24.6504 34.4399 26.04 34.4399C27.4296 34.4399 28.56 35.5703 28.56 36.9599C28.56 38.3496 27.4296 39.4799 26.04 39.4799Z" fill="var(--fill-0, black)"/>
<path id="Vector_10" d="M26.04 37.8C26.5039 37.8 26.88 37.4239 26.88 36.96C26.88 36.496 26.5039 36.12 26.04 36.12C25.5761 36.12 25.2 36.496 25.2 36.96C25.2 37.4239 25.5761 37.8 26.04 37.8Z" fill="var(--fill-0, black)"/>
<path id="Vector_11" d="M19.32 37.8C19.7839 37.8 20.16 37.4239 20.16 36.96C20.16 36.496 19.7839 36.12 19.32 36.12C18.8561 36.12 18.48 36.496 18.48 36.96C18.48 37.4239 18.8561 37.8 19.32 37.8Z" fill="var(--fill-0, black)"/>
<path id="Vector_12" d="M31.9199 21C31.9199 23.7792 34.1807 26.04 36.9599 26.04C39.7392 26.04 41.9999 23.7792 41.9999 21V19.32H31.9199V21Z" fill="var(--fill-0, black)"/>
<path id="Vector_13" d="M38.64 7.56004C38.1276 7.56004 37.6404 7.46765 37.1784 7.29123C37.1028 7.26601 37.0356 7.24083 36.96 7.2072V17.64H42V5.88003C41.2356 6.8964 40.0092 7.56004 38.64 7.56004Z" fill="var(--fill-0, black)"/>
</g>
</svg>
