<svg preserveAspectRatio="none" width="100%" height="100%" overflow="visible" style="display: block;" viewBox="0 0 35.3333 44.1667" fill="none" xmlns="http://www.w3.org/2000/svg">
<path id="icon" d="M17.6667 22.0833C18.8813 22.0833 19.921 21.6509 20.7859 20.7859C21.6509 19.921 22.0833 18.8813 22.0833 17.6667C22.0833 16.4521 21.6509 15.4123 20.7859 14.5474C19.921 13.6825 18.8813 13.25 17.6667 13.25C16.4521 13.25 15.4123 13.6825 14.5474 14.5474C13.6825 15.4123 13.25 16.4521 13.25 17.6667C13.25 18.8813 13.6825 19.921 14.5474 20.7859C15.4123 21.6509 16.4521 22.0833 17.6667 22.0833ZM17.6667 44.1667C11.741 39.1243 7.31511 34.4408 4.38906 30.1162C1.46302 25.7915 0 21.7889 0 18.1083C0 12.5875 1.77587 8.18924 5.32761 4.91354C8.87934 1.63785 12.9924 0 17.6667 0C22.341 0 26.454 1.63785 30.0057 4.91354C33.5575 8.18924 35.3333 12.5875 35.3333 18.1083C35.3333 21.7889 33.8703 25.7915 30.9443 30.1162C28.0182 34.4408 23.5924 39.1243 17.6667 44.1667Z" fill="var(--fill-0, #E6A000)"/>
</svg>
