<svg preserveAspectRatio="none" width="100%" height="100%" overflow="visible" style="display: block;" viewBox="0 0 47.5 42.75" fill="none" xmlns="http://www.w3.org/2000/svg">
<path id="icon" d="M40.375 14.25C38.3958 14.25 36.7135 13.5573 35.3281 12.1719C33.9427 10.7865 33.25 9.10417 33.25 7.125C33.25 5.14583 33.9427 3.46354 35.3281 2.07813C36.7135 0.692708 38.3958 0 40.375 0C42.3542 0 44.0365 0.692708 45.4219 2.07813C46.8073 3.46354 47.5 5.14583 47.5 7.125C47.5 9.10417 46.8073 10.7865 45.4219 12.1719C44.0365 13.5573 42.3542 14.25 40.375 14.25ZM4.75 42.75C3.44375 42.75 2.32552 42.2849 1.39531 41.3547C0.465104 40.4245 0 39.3063 0 38V9.5C0 8.19375 0.465104 7.07552 1.39531 6.14531C2.32552 5.21511 3.44375 4.75 4.75 4.75H28.7375C28.5792 5.54167 28.5 6.33333 28.5 7.125C28.5 7.91667 28.5792 8.70834 28.7375 9.5C29.0146 10.7667 29.4698 11.9443 30.1031 13.0328C30.7365 14.1214 31.5083 15.0813 32.4188 15.9125L23.75 21.375L4.75 9.5V14.25L23.75 26.125L36.2781 18.2875C36.9511 18.525 37.624 18.7031 38.2969 18.8219C38.9698 18.9406 39.6625 19 40.375 19C41.6417 19 42.8886 18.8021 44.1156 18.4063C45.3427 18.0104 46.4708 17.4167 47.5 16.625V38C47.5 39.3063 47.0349 40.4245 46.1047 41.3547C45.1745 42.2849 44.0563 42.75 42.75 42.75H4.75Z" fill="var(--fill-0, #E6A000)"/>
</svg>
