<svg preserveAspectRatio="none" width="100%" height="100%" overflow="visible" style="display: block;" viewBox="0 0 54 34" fill="none" xmlns="http://www.w3.org/2000/svg">
<g id="Warstwa_1" clip-path="url(#clip0_0_20)">
<path id="Vector" d="M0.0299921 20.5447C0.190027 19.0799 1.06001 17.6655 2.13684 16.7243C4.219 14.9053 7.0741 14.3609 9.71298 13.9668C9.72234 9.04809 11.7194 4.45068 13.5342 0.0104191L23.8838 0.0199699L29.273 5.27725C30.0451 5.47435 30.9687 5.40055 31.7587 5.26857V0.912536L32.9709 0L42.4564 24.8486L53.933 26.4557L54.0011 27.752L40.2584 27.9526C40.1657 27.9318 40.1316 27.8745 40.1035 27.7876C39.9077 27.1894 39.9699 26.0737 39.8464 25.3609C38.8658 19.7103 32.0771 18.3818 27.751 20.8121C25.1411 22.2786 24.2268 25.1777 24.1689 28.0759H14.9975C14.9916 24.714 12.8643 21.8913 9.46782 21.6169C5.3733 21.2861 3.1975 24.1366 2.29688 27.8597C1.63886 26.7674 0.979138 25.558 0.582454 24.3381C0.3756 23.7034 0.090431 22.6971 0.0299921 22.0511C-0.00661174 21.6621 -0.0117192 20.9284 0.0299921 20.5447ZM27.0096 16.4517L28.1656 7.14313L23.2513 1.95618L14.4689 1.9857C14.1548 2.17932 12.3689 8.27187 12.1603 9.09584C11.7534 10.7038 11.3312 12.4065 11.4283 14.0753L22.5396 18.9054C23.608 17.4597 25.1734 16.4039 27.0104 16.4517H27.0096ZM36.2908 15.7033L32.97 6.98945H30.3873V10.4859L34.1294 15.7033H36.2899H36.2908Z" fill="var(--fill-0, black)"/>
<path id="Vector_2" d="M37.7828 27.8007C37.7828 31.2242 35.0631 34 31.7083 34C28.3535 34 25.6337 31.2242 25.6337 27.8007C25.6337 24.3771 28.3535 21.6013 31.7083 21.6013C35.0631 21.6013 37.7828 24.3771 37.7828 27.8007ZM35.2852 27.7981C35.2852 25.7846 33.6857 24.1523 31.7125 24.1523C29.7393 24.1523 28.1398 25.7846 28.1398 27.7981C28.1398 29.8115 29.7393 31.4439 31.7125 31.4439C33.6857 31.4439 35.2852 29.8115 35.2852 27.7981Z" fill="var(--fill-0, black)"/>
<path id="Vector_3" d="M13.5868 29.0067C13.5868 31.7564 11.4025 33.9852 8.70916 33.9852C6.0158 33.9852 3.83148 31.7564 3.83148 29.0067C3.83148 26.2569 6.0158 24.0281 8.70916 24.0281C11.4025 24.0281 13.5868 26.2569 13.5868 29.0067ZM11.583 29.0127C11.583 27.3891 10.2933 26.0728 8.70235 26.0728C7.11136 26.0728 5.82171 27.3891 5.82171 29.0127C5.82171 30.6364 7.11136 31.9527 8.70235 31.9527C10.2933 31.9527 11.583 30.6364 11.583 29.0127Z" fill="var(--fill-0, black)"/>
<path id="Vector_4" d="M31.7049 29.1482C32.4312 29.1482 33.02 28.5472 33.02 27.8059C33.02 27.0645 32.4312 26.4635 31.7049 26.4635C30.9785 26.4635 30.3897 27.0645 30.3897 27.8059C30.3897 28.5472 30.9785 29.1482 31.7049 29.1482Z" fill="var(--fill-0, black)"/>
<path id="Vector_5" d="M8.7049 30.0824C9.28457 30.0824 9.75449 29.6027 9.75449 29.011C9.75449 28.4193 9.28457 27.9396 8.7049 27.9396C8.12522 27.9396 7.65531 28.4193 7.65531 29.011C7.65531 29.6027 8.12522 30.0824 8.7049 30.0824Z" fill="var(--fill-0, black)"/>
</g>
<defs>
<clipPath id="clip0_0_20">
<rect width="54" height="34" fill="white"/>
</clipPath>
</defs>
</svg>
