<svg preserveAspectRatio="none" width="100%" height="100%" overflow="visible" style="display: block;" viewBox="0 0 64.9999 41.0295" fill="none" xmlns="http://www.w3.org/2000/svg">
<g id="_x36_">
<path id="icon_5_" d="M25.6383 22.6833L25.1086 21.5702C24.6196 20.5398 23.3922 20.1072 22.3619 20.5962C21.5981 20.9633 20.7095 20.8146 20.0854 20.2575L20.063 20.2453C19.4389 19.6882 19.2013 18.8026 19.4851 18.0211L19.4882 17.9642C19.8579 16.8973 19.3125 15.7253 18.245 15.3561L17.07 14.9346C16.0031 14.5649 14.8315 15.1103 14.4618 16.1777L14.4359 16.2224C14.1521 17.0044 13.433 17.5346 12.6007 17.5762C12.5657 17.5854 12.5438 17.5732 12.5088 17.5823C11.708 17.6224 10.9615 17.1918 10.6304 16.4687C10.1226 15.3683 8.80125 14.9112 7.72317 15.4312L6.84618 15.8415C5.74575 16.3494 5.28821 17.6707 5.80871 18.7488C6.14438 19.4643 6.02149 20.3093 5.47305 20.9187L5.43903 20.9776C4.88196 21.6017 3.98668 21.8043 3.17774 21.5341C2.06207 21.1467 0.877855 21.7139 0.48684 22.8179L0.128324 23.832C-0.279449 24.9659 0.31977 26.1974 1.42782 26.5808C2.20985 26.8646 2.7136 27.5786 2.76286 28.4145C2.76286 28.4145 2.75524 28.4282 2.77657 28.4419C2.81871 29.2737 2.37082 30.0496 1.60758 30.4168L1.52938 30.4503C0.499027 30.9388 0.0663711 32.1672 0.554887 33.1976L1.08454 34.3107C1.57305 35.341 2.79332 35.7696 3.83129 35.2852L3.87141 35.2496C4.64227 34.8865 5.53145 35.0353 6.17028 35.6005L6.19262 35.6127C6.79438 36.1571 7.03 37.0117 6.76848 37.8065C6.76848 37.8065 6.8934 40.1338 7.98266 40.5162L9.16993 40.9158C10.2297 41.2809 11.4089 40.7401 11.7781 39.6727L11.7902 39.6503C12.0741 38.8688 12.8064 38.3158 13.6255 38.2965C13.6255 38.2965 13.6473 38.3087 13.66 38.2874C14.4888 38.2335 15.2738 38.716 15.6278 39.4518C16.1168 40.4821 17.3589 40.9234 18.3938 40.4273L19.5029 39.9047C20.5332 39.4157 20.9659 38.1883 20.4642 37.1798C20.1011 36.409 20.2529 35.532 20.8029 34.9033L20.8288 34.8586C21.3854 34.235 22.2583 34.0192 23.053 34.2807L23.0748 34.2929C24.1423 34.6626 25.3173 34.1096 25.683 33.0498L26.1121 31.8793C26.4741 30.8078 25.9328 29.6292 24.8618 29.2671C24.0798 28.9837 23.539 28.2479 23.4857 27.4192C23.4979 27.3973 23.4765 27.3841 23.4887 27.3618C23.4389 26.5259 23.8955 25.7353 24.6663 25.3722C25.6936 24.9405 26.1263 23.7126 25.6373 22.6823H25.6383V22.6833ZM15.838 33.6439C12.6916 35.1374 8.95207 33.8176 7.45454 30.6783C5.96817 27.536 7.28848 23.7969 10.4278 22.2989C13.5747 20.8049 17.3091 22.1328 18.8072 25.2721C20.3139 28.3962 18.9732 32.153 15.838 33.6439ZM62.2739 9.22881L61.2766 7.75768C60.3549 6.39573 58.511 6.04635 57.1491 6.96752C56.1406 7.65713 54.8411 7.63885 53.8305 6.98073L53.7965 6.96803C52.7854 6.30991 52.2543 5.09979 52.4879 3.92319L52.4797 3.84143C52.7738 2.23979 51.7414 0.68893 50.1397 0.394906L48.3725 0.050102C46.7709 -0.244429 45.22 0.788461 44.926 2.3901L44.8991 2.45916C44.665 3.63577 43.755 4.5478 42.5784 4.78901C42.5307 4.80983 42.4966 4.79713 42.4484 4.81745C41.3155 5.04901 40.1577 4.59807 39.528 3.63932C38.5647 2.18139 36.5811 1.8178 35.1577 2.79432L33.9974 3.57026C32.5395 4.53358 32.1754 6.51709 33.1524 7.94049C33.7866 8.88756 33.7953 10.1185 33.1463 11.1062L33.1107 11.1981C32.4526 12.2092 31.2212 12.6931 30.0085 12.4844C28.3343 12.1751 26.7697 13.2421 26.4528 14.9006L26.1623 16.4245C25.8282 18.1292 26.9505 19.7548 28.6136 20.0599C29.7897 20.294 30.6636 21.202 30.9165 22.3832C30.9165 22.3832 30.9089 22.4045 30.9424 22.4192C31.1836 23.5958 30.7144 24.7989 29.7064 25.489L29.6018 25.554C28.2393 26.4751 27.8904 28.32 28.8116 29.682L29.8095 31.1531C30.7306 32.5151 32.5633 32.8604 33.9375 31.9433L33.9872 31.8839C35.0069 31.1983 36.3069 31.2166 37.3403 31.8833L37.3743 31.896C38.3509 32.5405 38.8729 33.7079 38.6733 34.8972C38.6733 34.8972 39.3584 38.1873 40.9945 38.4951L42.7739 38.8063C44.3644 39.0958 45.9269 38.068 46.2204 36.4664L46.2331 36.4318C46.4672 35.2557 47.3904 34.3087 48.5538 34.102C48.5538 34.102 48.5879 34.1147 48.6011 34.0812C49.7706 33.8242 50.9949 34.3406 51.6596 35.3121C52.5808 36.674 54.448 37.0326 55.815 36.0997L57.2816 35.1135C58.6441 34.1924 58.9934 32.348 58.0581 31.0201C57.373 30.0004 57.3984 28.7171 58.0448 27.7015L58.0718 27.6324C58.7294 26.6219 59.9268 26.1248 61.1161 26.3243L61.1501 26.337C62.7518 26.6315 64.3067 25.587 64.5966 23.997L64.9531 22.2349C65.236 20.6292 64.2077 19.0667 62.602 18.7838C61.4259 18.5502 60.4945 17.6194 60.2376 16.4499C60.2503 16.4159 60.2168 16.4022 60.2295 16.3676C59.9766 15.187 60.4549 13.9601 61.4741 13.2756C62.8442 12.4362 63.1931 10.5923 62.2719 9.22983L62.2739 9.22881ZM50.6932 26.9865C46.5338 29.8008 40.9163 28.7339 38.0975 24.5856C35.2943 20.4301 36.3613 14.8127 40.5096 11.9939C44.6696 9.17905 50.2824 10.2576 53.1013 14.406C55.9293 18.5314 54.837 24.1788 50.6932 26.9865Z" fill="var(--fill-0, #FBB53C)"/>
</g>
</svg>
